# xmcd
#
# Track frame offsets: 
#        150
#        15661
#        31687
#        49231
#        64002
#        78993
#        91137
#        103723
#        115684
#        128286
#        138792
#        150802
#
# Disc length: 2211 seconds
#
# Revision: 0
# Processed by: cddbd v1.5.2PL0 Copyright (c) Steve Scherf et al.
# Submitted via: ExactAudioCopy v0.95b4
#
DISCID=7b08a10c
DTITLE=Alternate Roots - Another Dirt Road
DYEAR=2000
DGENRE=Bluegrass
TTITLE0=From Out of the Blue
TTITLE1=Satisfied Mind
TTITLE2=The Shootin'
TTITLE3=Send Her Roses
TTITLE4=Appalachian Rain
TTITLE5=Lovesick Blues
TTITLE6=The Price I Pay
TTITLE7=Mid the Greenfields of Virginia
TTITLE8=Blue Kentucky Girl
TTITLE9=Jealous
TTITLE10=Goodbye
TTITLE11=Lovin' of the Game
EXTD=
EXTT0=
EXTT1=
EXTT2=
EXTT3=
EXTT4=
EXTT5=
EXTT6=
EXTT7=
EXTT8=
EXTT9=
EXTT10=
EXTT11=
PLAYORDER=
